<mxfile host="Electron" modified="2024-09-28T14:25:16.796Z" agent="Mozilla/5.0 (Windows NT 10.0; Win64; x64) AppleWebKit/537.36 (KHTML, like Gecko) draw.io/24.4.8 Chrome/124.0.6367.207 Electron/30.0.6 Safari/537.36" etag="6iAmUGbz4_v9CXZCPNgV" version="24.4.8" type="device">
  <diagram name="第 1 页" id="ylHkwkH1ESXA_NtWmJnx">
    <mxGraphModel dx="1562" dy="909" grid="1" gridSize="10" guides="1" tooltips="1" connect="1" arrows="1" fold="1" page="1" pageScale="1" pageWidth="3300" pageHeight="4681" math="0" shadow="0">
      <root>
        <mxCell id="0" />
        <mxCell id="1" parent="0" />
        <mxCell id="5RYZkBLdxnvxbpnSPjcw-1" value="&lt;font style=&quot;font-size: 24px;&quot;&gt;8&lt;/font&gt;" style="ellipse;whiteSpace=wrap;html=1;aspect=fixed;fillColor=#60a917;fontColor=#ffffff;strokeColor=#2D7600;" parent="1" vertex="1">
          <mxGeometry x="640" y="100" width="60" height="60" as="geometry" />
        </mxCell>
        <mxCell id="5RYZkBLdxnvxbpnSPjcw-2" value="&lt;font style=&quot;font-size: 24px;&quot;&gt;3&lt;/font&gt;" style="ellipse;whiteSpace=wrap;html=1;aspect=fixed;" parent="1" vertex="1">
          <mxGeometry x="540" y="200" width="60" height="60" as="geometry" />
        </mxCell>
        <mxCell id="5RYZkBLdxnvxbpnSPjcw-4" value="&lt;font style=&quot;font-size: 24px;&quot;&gt;1&lt;/font&gt;" style="ellipse;whiteSpace=wrap;html=1;aspect=fixed;" parent="1" vertex="1">
          <mxGeometry x="450" y="290" width="60" height="60" as="geometry" />
        </mxCell>
        <mxCell id="5RYZkBLdxnvxbpnSPjcw-5" value="&lt;font style=&quot;font-size: 24px;&quot;&gt;6&lt;/font&gt;" style="ellipse;whiteSpace=wrap;html=1;aspect=fixed;" parent="1" vertex="1">
          <mxGeometry x="620" y="290" width="60" height="60" as="geometry" />
        </mxCell>
        <mxCell id="5RYZkBLdxnvxbpnSPjcw-9" value="" style="endArrow=none;html=1;rounded=0;entryX=0;entryY=1;entryDx=0;entryDy=0;exitX=1;exitY=0;exitDx=0;exitDy=0;" parent="1" source="5RYZkBLdxnvxbpnSPjcw-2" target="5RYZkBLdxnvxbpnSPjcw-1" edge="1">
          <mxGeometry width="50" height="50" relative="1" as="geometry">
            <mxPoint x="630" y="330" as="sourcePoint" />
            <mxPoint x="680" y="280" as="targetPoint" />
          </mxGeometry>
        </mxCell>
        <mxCell id="5RYZkBLdxnvxbpnSPjcw-10" value="" style="endArrow=none;html=1;rounded=0;exitX=1;exitY=0;exitDx=0;exitDy=0;entryX=0;entryY=1;entryDx=0;entryDy=0;" parent="1" source="5RYZkBLdxnvxbpnSPjcw-4" target="5RYZkBLdxnvxbpnSPjcw-2" edge="1">
          <mxGeometry width="50" height="50" relative="1" as="geometry">
            <mxPoint x="630" y="330" as="sourcePoint" />
            <mxPoint x="680" y="280" as="targetPoint" />
          </mxGeometry>
        </mxCell>
        <mxCell id="5RYZkBLdxnvxbpnSPjcw-11" value="" style="endArrow=none;html=1;rounded=0;exitX=1;exitY=1;exitDx=0;exitDy=0;entryX=0.5;entryY=0;entryDx=0;entryDy=0;" parent="1" source="5RYZkBLdxnvxbpnSPjcw-2" target="5RYZkBLdxnvxbpnSPjcw-5" edge="1">
          <mxGeometry width="50" height="50" relative="1" as="geometry">
            <mxPoint x="630" y="330" as="sourcePoint" />
            <mxPoint x="680" y="280" as="targetPoint" />
          </mxGeometry>
        </mxCell>
        <mxCell id="5RYZkBLdxnvxbpnSPjcw-15" value="&lt;font style=&quot;font-size: 24px;&quot;&gt;1&lt;/font&gt;" style="ellipse;whiteSpace=wrap;html=1;aspect=fixed;" parent="1" vertex="1">
          <mxGeometry x="400" y="500" width="60" height="60" as="geometry" />
        </mxCell>
        <mxCell id="5RYZkBLdxnvxbpnSPjcw-16" value="&lt;font style=&quot;font-size: 24px;&quot;&gt;2&lt;/font&gt;" style="ellipse;whiteSpace=wrap;html=1;aspect=fixed;" parent="1" vertex="1">
          <mxGeometry x="460" y="580" width="60" height="60" as="geometry" />
        </mxCell>
        <mxCell id="5RYZkBLdxnvxbpnSPjcw-17" value="&lt;font style=&quot;font-size: 24px;&quot;&gt;3&lt;/font&gt;" style="ellipse;whiteSpace=wrap;html=1;aspect=fixed;" parent="1" vertex="1">
          <mxGeometry x="520" y="670" width="60" height="60" as="geometry" />
        </mxCell>
        <mxCell id="5RYZkBLdxnvxbpnSPjcw-18" value="&lt;font style=&quot;font-size: 24px;&quot;&gt;4&lt;/font&gt;" style="ellipse;whiteSpace=wrap;html=1;aspect=fixed;" parent="1" vertex="1">
          <mxGeometry x="570" y="750" width="60" height="60" as="geometry" />
        </mxCell>
        <mxCell id="5RYZkBLdxnvxbpnSPjcw-19" value="&lt;font style=&quot;font-size: 24px;&quot;&gt;5&lt;/font&gt;" style="ellipse;whiteSpace=wrap;html=1;aspect=fixed;" parent="1" vertex="1">
          <mxGeometry x="620" y="830" width="60" height="60" as="geometry" />
        </mxCell>
        <mxCell id="5RYZkBLdxnvxbpnSPjcw-21" value="" style="endArrow=none;html=1;rounded=0;exitX=1;exitY=1;exitDx=0;exitDy=0;entryX=0.5;entryY=0;entryDx=0;entryDy=0;" parent="1" source="5RYZkBLdxnvxbpnSPjcw-15" target="5RYZkBLdxnvxbpnSPjcw-16" edge="1">
          <mxGeometry width="50" height="50" relative="1" as="geometry">
            <mxPoint x="710" y="710" as="sourcePoint" />
            <mxPoint x="760" y="660" as="targetPoint" />
          </mxGeometry>
        </mxCell>
        <mxCell id="5RYZkBLdxnvxbpnSPjcw-22" value="" style="endArrow=none;html=1;rounded=0;exitX=1;exitY=1;exitDx=0;exitDy=0;entryX=0.5;entryY=0;entryDx=0;entryDy=0;" parent="1" source="5RYZkBLdxnvxbpnSPjcw-16" target="5RYZkBLdxnvxbpnSPjcw-17" edge="1">
          <mxGeometry width="50" height="50" relative="1" as="geometry">
            <mxPoint x="461" y="561" as="sourcePoint" />
            <mxPoint x="479" y="599" as="targetPoint" />
          </mxGeometry>
        </mxCell>
        <mxCell id="5RYZkBLdxnvxbpnSPjcw-23" value="" style="endArrow=none;html=1;rounded=0;exitX=0.5;exitY=0;exitDx=0;exitDy=0;entryX=1;entryY=1;entryDx=0;entryDy=0;" parent="1" source="5RYZkBLdxnvxbpnSPjcw-18" target="5RYZkBLdxnvxbpnSPjcw-17" edge="1">
          <mxGeometry width="50" height="50" relative="1" as="geometry">
            <mxPoint x="471" y="571" as="sourcePoint" />
            <mxPoint x="489" y="609" as="targetPoint" />
          </mxGeometry>
        </mxCell>
        <mxCell id="5RYZkBLdxnvxbpnSPjcw-24" value="" style="endArrow=none;html=1;rounded=0;exitX=0.5;exitY=0;exitDx=0;exitDy=0;entryX=1;entryY=1;entryDx=0;entryDy=0;" parent="1" source="5RYZkBLdxnvxbpnSPjcw-19" target="5RYZkBLdxnvxbpnSPjcw-18" edge="1">
          <mxGeometry width="50" height="50" relative="1" as="geometry">
            <mxPoint x="481" y="581" as="sourcePoint" />
            <mxPoint x="499" y="619" as="targetPoint" />
          </mxGeometry>
        </mxCell>
        <mxCell id="5RYZkBLdxnvxbpnSPjcw-25" value="&lt;span style=&quot;font-size: 24px;&quot;&gt;4&lt;/span&gt;" style="ellipse;whiteSpace=wrap;html=1;aspect=fixed;" parent="1" vertex="1">
          <mxGeometry x="580" y="380" width="60" height="60" as="geometry" />
        </mxCell>
        <mxCell id="5RYZkBLdxnvxbpnSPjcw-26" value="&lt;font style=&quot;font-size: 24px;&quot;&gt;7&lt;/font&gt;" style="ellipse;whiteSpace=wrap;html=1;aspect=fixed;" parent="1" vertex="1">
          <mxGeometry x="670" y="380" width="60" height="60" as="geometry" />
        </mxCell>
        <mxCell id="5RYZkBLdxnvxbpnSPjcw-30" value="" style="endArrow=none;html=1;rounded=0;exitX=0;exitY=1;exitDx=0;exitDy=0;entryX=0.5;entryY=0;entryDx=0;entryDy=0;" parent="1" source="5RYZkBLdxnvxbpnSPjcw-5" target="5RYZkBLdxnvxbpnSPjcw-25" edge="1">
          <mxGeometry width="50" height="50" relative="1" as="geometry">
            <mxPoint x="551" y="319" as="sourcePoint" />
            <mxPoint x="589" y="271" as="targetPoint" />
          </mxGeometry>
        </mxCell>
        <mxCell id="5RYZkBLdxnvxbpnSPjcw-31" value="" style="endArrow=none;html=1;rounded=0;exitX=0.5;exitY=0;exitDx=0;exitDy=0;entryX=1;entryY=1;entryDx=0;entryDy=0;" parent="1" source="5RYZkBLdxnvxbpnSPjcw-26" target="5RYZkBLdxnvxbpnSPjcw-5" edge="1">
          <mxGeometry width="50" height="50" relative="1" as="geometry">
            <mxPoint x="561" y="329" as="sourcePoint" />
            <mxPoint x="599" y="281" as="targetPoint" />
          </mxGeometry>
        </mxCell>
        <mxCell id="5RYZkBLdxnvxbpnSPjcw-32" value="&lt;font style=&quot;font-size: 18px;&quot;&gt;删除根节点&lt;/font&gt;" style="text;html=1;align=center;verticalAlign=middle;resizable=0;points=[];autosize=1;strokeColor=none;fillColor=none;" parent="1" vertex="1">
          <mxGeometry x="450" y="110" width="110" height="40" as="geometry" />
        </mxCell>
        <mxCell id="3RWGNxVvEmu9eTVkY6Dq-1" value="&lt;font style=&quot;font-size: 24px;&quot;&gt;8&lt;/font&gt;" style="ellipse;whiteSpace=wrap;html=1;aspect=fixed;" vertex="1" parent="1">
          <mxGeometry x="1260" y="280" width="60" height="60" as="geometry" />
        </mxCell>
        <mxCell id="3RWGNxVvEmu9eTVkY6Dq-3" value="&lt;font style=&quot;font-size: 24px;&quot;&gt;3&lt;/font&gt;" style="ellipse;whiteSpace=wrap;html=1;aspect=fixed;" vertex="1" parent="1">
          <mxGeometry x="1160" y="370" width="60" height="60" as="geometry" />
        </mxCell>
        <mxCell id="3RWGNxVvEmu9eTVkY6Dq-4" value="&lt;font style=&quot;font-size: 24px;&quot;&gt;10&lt;/font&gt;" style="ellipse;whiteSpace=wrap;html=1;aspect=fixed;" vertex="1" parent="1">
          <mxGeometry x="1360" y="370" width="60" height="60" as="geometry" />
        </mxCell>
        <mxCell id="3RWGNxVvEmu9eTVkY6Dq-5" value="&lt;font style=&quot;font-size: 24px;&quot;&gt;1&lt;/font&gt;" style="ellipse;whiteSpace=wrap;html=1;aspect=fixed;" vertex="1" parent="1">
          <mxGeometry x="1070" y="460" width="60" height="60" as="geometry" />
        </mxCell>
        <mxCell id="3RWGNxVvEmu9eTVkY6Dq-6" value="&lt;font style=&quot;font-size: 24px;&quot;&gt;6&lt;/font&gt;" style="ellipse;whiteSpace=wrap;html=1;aspect=fixed;" vertex="1" parent="1">
          <mxGeometry x="1210" y="460" width="60" height="60" as="geometry" />
        </mxCell>
        <mxCell id="3RWGNxVvEmu9eTVkY6Dq-7" value="&lt;font style=&quot;font-size: 24px;&quot;&gt;4&lt;/font&gt;" style="ellipse;whiteSpace=wrap;html=1;aspect=fixed;" vertex="1" parent="1">
          <mxGeometry x="1140" y="570" width="60" height="60" as="geometry" />
        </mxCell>
        <mxCell id="3RWGNxVvEmu9eTVkY6Dq-8" value="&lt;font style=&quot;font-size: 24px;&quot;&gt;7&lt;/font&gt;" style="ellipse;whiteSpace=wrap;html=1;aspect=fixed;" vertex="1" parent="1">
          <mxGeometry x="1270" y="570" width="60" height="60" as="geometry" />
        </mxCell>
        <mxCell id="3RWGNxVvEmu9eTVkY6Dq-9" value="&lt;font style=&quot;font-size: 24px;&quot;&gt;14&lt;/font&gt;" style="ellipse;whiteSpace=wrap;html=1;aspect=fixed;" vertex="1" parent="1">
          <mxGeometry x="1450" y="460" width="60" height="60" as="geometry" />
        </mxCell>
        <mxCell id="3RWGNxVvEmu9eTVkY6Dq-13" value="" style="endArrow=none;html=1;rounded=0;entryX=0.047;entryY=0.853;entryDx=0;entryDy=0;entryPerimeter=0;exitX=1;exitY=0;exitDx=0;exitDy=0;" edge="1" parent="1" source="3RWGNxVvEmu9eTVkY6Dq-3" target="3RWGNxVvEmu9eTVkY6Dq-1">
          <mxGeometry relative="1" as="geometry">
            <mxPoint x="930" y="740" as="sourcePoint" />
            <mxPoint x="1000" y="660" as="targetPoint" />
          </mxGeometry>
        </mxCell>
        <mxCell id="3RWGNxVvEmu9eTVkY6Dq-14" value="" style="endArrow=none;html=1;rounded=0;entryX=0;entryY=1;entryDx=0;entryDy=0;exitX=1;exitY=0;exitDx=0;exitDy=0;" edge="1" parent="1" source="3RWGNxVvEmu9eTVkY6Dq-5" target="3RWGNxVvEmu9eTVkY6Dq-3">
          <mxGeometry relative="1" as="geometry">
            <mxPoint x="1221" y="389" as="sourcePoint" />
            <mxPoint x="1273" y="341" as="targetPoint" />
          </mxGeometry>
        </mxCell>
        <mxCell id="3RWGNxVvEmu9eTVkY6Dq-15" value="" style="endArrow=none;html=1;rounded=0;entryX=0.5;entryY=0;entryDx=0;entryDy=0;exitX=1;exitY=1;exitDx=0;exitDy=0;" edge="1" parent="1" source="3RWGNxVvEmu9eTVkY6Dq-3" target="3RWGNxVvEmu9eTVkY6Dq-6">
          <mxGeometry relative="1" as="geometry">
            <mxPoint x="1231" y="399" as="sourcePoint" />
            <mxPoint x="1283" y="351" as="targetPoint" />
          </mxGeometry>
        </mxCell>
        <mxCell id="3RWGNxVvEmu9eTVkY6Dq-16" value="" style="endArrow=none;html=1;rounded=0;entryX=1;entryY=1;entryDx=0;entryDy=0;exitX=0;exitY=0;exitDx=0;exitDy=0;" edge="1" parent="1" source="3RWGNxVvEmu9eTVkY6Dq-4" target="3RWGNxVvEmu9eTVkY6Dq-1">
          <mxGeometry relative="1" as="geometry">
            <mxPoint x="1241" y="409" as="sourcePoint" />
            <mxPoint x="1293" y="361" as="targetPoint" />
          </mxGeometry>
        </mxCell>
        <mxCell id="3RWGNxVvEmu9eTVkY6Dq-17" value="" style="endArrow=none;html=1;rounded=0;entryX=1;entryY=1;entryDx=0;entryDy=0;exitX=0;exitY=0;exitDx=0;exitDy=0;" edge="1" parent="1" source="3RWGNxVvEmu9eTVkY6Dq-9" target="3RWGNxVvEmu9eTVkY6Dq-4">
          <mxGeometry relative="1" as="geometry">
            <mxPoint x="1251" y="419" as="sourcePoint" />
            <mxPoint x="1303" y="371" as="targetPoint" />
          </mxGeometry>
        </mxCell>
        <mxCell id="3RWGNxVvEmu9eTVkY6Dq-18" value="" style="endArrow=none;html=1;rounded=0;entryX=0.5;entryY=0;entryDx=0;entryDy=0;exitX=0;exitY=1;exitDx=0;exitDy=0;" edge="1" parent="1" source="3RWGNxVvEmu9eTVkY6Dq-6" target="3RWGNxVvEmu9eTVkY6Dq-7">
          <mxGeometry relative="1" as="geometry">
            <mxPoint x="1261" y="429" as="sourcePoint" />
            <mxPoint x="1313" y="381" as="targetPoint" />
          </mxGeometry>
        </mxCell>
        <mxCell id="3RWGNxVvEmu9eTVkY6Dq-19" value="" style="endArrow=none;html=1;rounded=0;entryX=0.5;entryY=0;entryDx=0;entryDy=0;exitX=1;exitY=1;exitDx=0;exitDy=0;" edge="1" parent="1" source="3RWGNxVvEmu9eTVkY6Dq-6" target="3RWGNxVvEmu9eTVkY6Dq-8">
          <mxGeometry relative="1" as="geometry">
            <mxPoint x="1271" y="439" as="sourcePoint" />
            <mxPoint x="1323" y="391" as="targetPoint" />
          </mxGeometry>
        </mxCell>
        <mxCell id="3RWGNxVvEmu9eTVkY6Dq-21" value="&lt;font style=&quot;font-size: 24px;&quot;&gt;8&lt;/font&gt;" style="ellipse;whiteSpace=wrap;html=1;aspect=fixed;" vertex="1" parent="1">
          <mxGeometry x="1900" y="290" width="60" height="60" as="geometry" />
        </mxCell>
        <mxCell id="3RWGNxVvEmu9eTVkY6Dq-22" value="&lt;font style=&quot;font-size: 24px;&quot;&gt;3&lt;/font&gt;" style="ellipse;whiteSpace=wrap;html=1;aspect=fixed;" vertex="1" parent="1">
          <mxGeometry x="1800" y="380" width="60" height="60" as="geometry" />
        </mxCell>
        <mxCell id="3RWGNxVvEmu9eTVkY6Dq-23" value="&lt;font style=&quot;font-size: 24px;&quot;&gt;10&lt;/font&gt;" style="ellipse;whiteSpace=wrap;html=1;aspect=fixed;" vertex="1" parent="1">
          <mxGeometry x="2000" y="380" width="60" height="60" as="geometry" />
        </mxCell>
        <mxCell id="3RWGNxVvEmu9eTVkY6Dq-24" value="&lt;font style=&quot;font-size: 24px;&quot;&gt;1&lt;/font&gt;" style="ellipse;whiteSpace=wrap;html=1;aspect=fixed;" vertex="1" parent="1">
          <mxGeometry x="1710" y="470" width="60" height="60" as="geometry" />
        </mxCell>
        <mxCell id="3RWGNxVvEmu9eTVkY6Dq-25" value="&lt;font style=&quot;font-size: 24px;&quot;&gt;6&lt;/font&gt;" style="ellipse;whiteSpace=wrap;html=1;aspect=fixed;" vertex="1" parent="1">
          <mxGeometry x="1850" y="470" width="60" height="60" as="geometry" />
        </mxCell>
        <mxCell id="3RWGNxVvEmu9eTVkY6Dq-26" value="&lt;font style=&quot;font-size: 24px;&quot;&gt;4&lt;/font&gt;" style="ellipse;whiteSpace=wrap;html=1;aspect=fixed;" vertex="1" parent="1">
          <mxGeometry x="1780" y="580" width="60" height="60" as="geometry" />
        </mxCell>
        <mxCell id="3RWGNxVvEmu9eTVkY6Dq-27" value="&lt;font style=&quot;font-size: 24px;&quot;&gt;7&lt;/font&gt;" style="ellipse;whiteSpace=wrap;html=1;aspect=fixed;" vertex="1" parent="1">
          <mxGeometry x="1910" y="580" width="60" height="60" as="geometry" />
        </mxCell>
        <mxCell id="3RWGNxVvEmu9eTVkY6Dq-28" value="&lt;font style=&quot;font-size: 24px;&quot;&gt;14&lt;/font&gt;" style="ellipse;whiteSpace=wrap;html=1;aspect=fixed;" vertex="1" parent="1">
          <mxGeometry x="2100" y="470" width="60" height="60" as="geometry" />
        </mxCell>
        <mxCell id="3RWGNxVvEmu9eTVkY6Dq-29" value="&lt;font style=&quot;font-size: 24px;&quot;&gt;13&lt;/font&gt;" style="ellipse;whiteSpace=wrap;html=1;aspect=fixed;" vertex="1" parent="1">
          <mxGeometry x="2030" y="580" width="60" height="60" as="geometry" />
        </mxCell>
        <mxCell id="3RWGNxVvEmu9eTVkY6Dq-30" value="" style="endArrow=none;html=1;rounded=0;entryX=0.047;entryY=0.853;entryDx=0;entryDy=0;entryPerimeter=0;exitX=1;exitY=0;exitDx=0;exitDy=0;" edge="1" parent="1" source="3RWGNxVvEmu9eTVkY6Dq-22" target="3RWGNxVvEmu9eTVkY6Dq-21">
          <mxGeometry relative="1" as="geometry">
            <mxPoint x="1570" y="750" as="sourcePoint" />
            <mxPoint x="1640" y="670" as="targetPoint" />
          </mxGeometry>
        </mxCell>
        <mxCell id="3RWGNxVvEmu9eTVkY6Dq-31" value="" style="endArrow=none;html=1;rounded=0;entryX=0;entryY=1;entryDx=0;entryDy=0;exitX=1;exitY=0;exitDx=0;exitDy=0;" edge="1" parent="1" source="3RWGNxVvEmu9eTVkY6Dq-24" target="3RWGNxVvEmu9eTVkY6Dq-22">
          <mxGeometry relative="1" as="geometry">
            <mxPoint x="1861" y="399" as="sourcePoint" />
            <mxPoint x="1913" y="351" as="targetPoint" />
          </mxGeometry>
        </mxCell>
        <mxCell id="3RWGNxVvEmu9eTVkY6Dq-32" value="" style="endArrow=none;html=1;rounded=0;entryX=0.5;entryY=0;entryDx=0;entryDy=0;exitX=1;exitY=1;exitDx=0;exitDy=0;" edge="1" parent="1" source="3RWGNxVvEmu9eTVkY6Dq-22" target="3RWGNxVvEmu9eTVkY6Dq-25">
          <mxGeometry relative="1" as="geometry">
            <mxPoint x="1871" y="409" as="sourcePoint" />
            <mxPoint x="1923" y="361" as="targetPoint" />
          </mxGeometry>
        </mxCell>
        <mxCell id="3RWGNxVvEmu9eTVkY6Dq-33" value="" style="endArrow=none;html=1;rounded=0;entryX=1;entryY=1;entryDx=0;entryDy=0;exitX=0;exitY=0;exitDx=0;exitDy=0;" edge="1" parent="1" source="3RWGNxVvEmu9eTVkY6Dq-23" target="3RWGNxVvEmu9eTVkY6Dq-21">
          <mxGeometry relative="1" as="geometry">
            <mxPoint x="1881" y="419" as="sourcePoint" />
            <mxPoint x="1933" y="371" as="targetPoint" />
          </mxGeometry>
        </mxCell>
        <mxCell id="3RWGNxVvEmu9eTVkY6Dq-34" value="" style="endArrow=none;html=1;rounded=0;entryX=1;entryY=1;entryDx=0;entryDy=0;exitX=0;exitY=0;exitDx=0;exitDy=0;" edge="1" parent="1" source="3RWGNxVvEmu9eTVkY6Dq-28" target="3RWGNxVvEmu9eTVkY6Dq-23">
          <mxGeometry relative="1" as="geometry">
            <mxPoint x="1891" y="429" as="sourcePoint" />
            <mxPoint x="1943" y="381" as="targetPoint" />
          </mxGeometry>
        </mxCell>
        <mxCell id="3RWGNxVvEmu9eTVkY6Dq-35" value="" style="endArrow=none;html=1;rounded=0;entryX=0.5;entryY=0;entryDx=0;entryDy=0;exitX=0;exitY=1;exitDx=0;exitDy=0;" edge="1" parent="1" source="3RWGNxVvEmu9eTVkY6Dq-25" target="3RWGNxVvEmu9eTVkY6Dq-26">
          <mxGeometry relative="1" as="geometry">
            <mxPoint x="1901" y="439" as="sourcePoint" />
            <mxPoint x="1953" y="391" as="targetPoint" />
          </mxGeometry>
        </mxCell>
        <mxCell id="3RWGNxVvEmu9eTVkY6Dq-36" value="" style="endArrow=none;html=1;rounded=0;entryX=0.5;entryY=0;entryDx=0;entryDy=0;exitX=1;exitY=1;exitDx=0;exitDy=0;" edge="1" parent="1" source="3RWGNxVvEmu9eTVkY6Dq-25" target="3RWGNxVvEmu9eTVkY6Dq-27">
          <mxGeometry relative="1" as="geometry">
            <mxPoint x="1911" y="449" as="sourcePoint" />
            <mxPoint x="1963" y="401" as="targetPoint" />
          </mxGeometry>
        </mxCell>
        <mxCell id="3RWGNxVvEmu9eTVkY6Dq-37" value="" style="endArrow=none;html=1;rounded=0;entryX=0;entryY=1;entryDx=0;entryDy=0;exitX=0.5;exitY=0;exitDx=0;exitDy=0;" edge="1" parent="1" source="3RWGNxVvEmu9eTVkY6Dq-29" target="3RWGNxVvEmu9eTVkY6Dq-28">
          <mxGeometry relative="1" as="geometry">
            <mxPoint x="1921" y="459" as="sourcePoint" />
            <mxPoint x="1973" y="411" as="targetPoint" />
          </mxGeometry>
        </mxCell>
      </root>
    </mxGraphModel>
  </diagram>
</mxfile>
